<svg xmlns="http://www.w3.org/2000/svg" viewBox="0 0 199.2 112.79"><defs><style>.cls-1,.cls-3{fill:#1d1d1b;}.cls-2,.cls-4{fill:#afca0b;}.cls-3,.cls-4{fill-rule:evenodd;}</style></defs><title>logo-ua</title><g id="Слой_2" data-name="Слой 2"><g id="Слой_1-2" data-name="Слой 1"><path class="cls-1" d="M83,52.75a4.62,4.62,0,0,0,1,.1l1-.1c-.3.51-1.2,2.21-2.7,5.07q-2.59,5-4.25,8.29-2.22,4.41-2.94,6l-1-.11L73,72.12c.69-1.1,1.31-2.13,1.87-3.07.19-.34.42-.74.66-1.2q-.28-.64-2-4.07c-1.55-3-2.7-5.25-3.47-6.68a40.05,40.05,0,0,0-2.54-4.35l1.68.1,1.58-.1q1.55,3.42,2,4.33c.43.89,1,2.08,1.75,3.56l2.23,4.48.21.08c.25-.45.78-1.45,1.58-3,1.14-2.24,2-3.93,2.54-5q1.36-2.84,2-4.38ZM103.1,70.92q-2.16,1.58-6.36,1.58a9.81,9.81,0,0,1-7.29-2.62q-2.6-2.62-2.6-7.41a9.75,9.75,0,0,1,2.84-7.32,10.58,10.58,0,0,1,7.69-2.75,13.43,13.43,0,0,1,6.1,1.39,8.6,8.6,0,0,0-.46,2.7,6.45,6.45,0,0,0-5.74-3,6.79,6.79,0,0,0-5.51,2.35,10.1,10.1,0,0,0-2,6.68,10,10,0,0,0,2,6.55,6.56,6.56,0,0,0,5.33,2.38,9.72,9.72,0,0,0,6.17-2.38l-.16,1.87Zm2.17,1.2q.53-2.3,1.31-7.59t1.64-12.13h.48q2,4.07,4,8c1.33,2.6,2.65,5.08,3.93,7.43q4-7.16,8.42-15.39h.36q.55,5.4.63,6.2c.3,2.65.54,4.85.74,6.57.28,2.32.55,4.64.83,7-.17,0-.38-.06-.61-.08l-.67,0a6.94,6.94,0,0,0-1.28.11q0-3.45-.27-6.28c-.18-1.89-.39-3.57-.64-5.05,0-.34-.24-1.27-.56-2.81-1.25,2.09-2.43,4.18-3.56,6.28-.85,1.61-1.64,3.19-2.37,4.76-.63,1.36-1.06,2.39-1.31,3.1H116a18.52,18.52,0,0,0-1.07-2.78c-.41-.89-1-2-1.63-3.18L108.85,58q-.64,4.47-1,8.47c-.25,2.68-.37,4.55-.37,5.64a4.67,4.67,0,0,0-1-.11h-.7l-.45.11Zm29.07-19.37c-.05.62-.1,1.93-.13,3.91s-.06,3.89-.06,5.71c0,1.46,0,3.15,0,5.06s.06,3.48.17,4.69a7.86,7.86,0,0,0-2.62,0c.06-.62.1-2,.14-4s0-4,0-5.77c0-1.45,0-3.11,0-5s-.07-3.42-.18-4.63a8.63,8.63,0,0,0,2.62,0Zm28.51,0c0,1,0,2,0,3.12-.09,2.78-.13,4.53-.13,5.24,0,1.37,0,3.15.06,5.32s.09,4.11.12,5.8c-.76-.07-1.64-.11-2.62-.11l-2.55,0-2.5.06c-2.17-.07-3.69-.11-4.57-.11s-1.88,0-3.3,0-2.47.06-3.16.06c-2.3-.07-3.89-.11-4.76-.11a13.78,13.78,0,0,0-1.92.11c.05-.63.1-2,.13-4s.05-4,.05-5.84c0-1.45,0-3.11,0-5s-.07-3.42-.17-4.63a5.87,5.87,0,0,0,.67.08c.28,0,.49,0,.64,0a6.56,6.56,0,0,0,.76,0l.55-.06s0,1.36-.1,4-.09,4.65-.09,5.91c0,1,0,2.23,0,3.64s0,2.86.08,4.35h8.92c0-.71,0-2.17,0-4.39s.06-3.53.06-3.94c0-1.45,0-3.11,0-5s-.06-3.42-.17-4.63a5.87,5.87,0,0,0,.67.08c.28,0,.5,0,.64,0a6.56,6.56,0,0,0,.76,0l.55-.06s0,1.36-.09,4-.1,4.65-.1,5.91c0,1,0,2.23,0,3.64s0,2.86.08,4.35h8.93c0-.67,0-2.45.05-5.34s0-4.35,0-4.38c0-1,0-2.07,0-3.26-.09-3-.14-4.65-.14-5a8.82,8.82,0,0,0,1.31.1H162l.85-.09ZM170,61.81q1.31,0,8.87-9.06a6.7,6.7,0,0,0,1.26.1,5.8,5.8,0,0,0,1.28-.1,33.81,33.81,0,0,0-2.67,2.43l-2.11,2.11-4.14,4.12c.71.9,1.6,2,2.67,3.23q.4.48,3.1,3.55l3.42,3.93A12,12,0,0,0,180,72h-.69a6.79,6.79,0,0,0-.91.11c-1.14-1.58-2.25-3.05-3.31-4.38l-3.26-4c-.75-.93-1.41-1.39-2-1.39v3.37q0,1.13.09,3.36c.06,1.5.09,2.52.09,3.05a7.8,7.8,0,0,0-2.61,0c0-.62.09-2,.13-4s.05-4,.05-5.77c0-1.45,0-3.11,0-5s-.07-3.42-.17-4.63a8.57,8.57,0,0,0,2.61,0c0,.6-.09,1.29-.13,2.07s0,1.62,0,2.55V61.7s0,.07.13.11Zm11.71,10.31q4.65-10.1,8.76-19.72H191q1.38,3.45,2.75,6.79c.82,2,1.73,4.17,2.75,6.57q1.68,4,2.73,6.36a8.34,8.34,0,0,0-1.39-.11h-.61a6.34,6.34,0,0,0-.84.11c-.37-1.15-.73-2.17-1.07-3.07-.44-1.18-.9-2.32-1.36-3.41l-.48-1.13h-7c-.25.55-.64,1.48-1.15,2.79q-.92,2.33-1.79,4.82a2.87,2.87,0,0,0-.42-.08,4.41,4.41,0,0,0-.52,0,2.57,2.57,0,0,0-.63.06l-.3.05ZM190,56.27l-3,7,2.13,0h3.8l-.48-1.18L190,56.27Z"/><path class="cls-2" d="M75.6,80.77v8.41c0,1.45,0,3.11,0,5s.07,3.42.17,4.63a7.5,7.5,0,0,0-1.31-.1,7.58,7.58,0,0,0-1.31.1c.06-.62.1-1.92.14-3.91s0-3.89,0-5.71V80.77h-.83a31.33,31.33,0,0,0-5.21.34l.05-.8-.05-.88,3.93,0,3.21.06,3.18,0c1.26,0,2.59,0,4-.08l-.08.83a3.25,3.25,0,0,0,.08.85,18.15,18.15,0,0,0-2.26-.26c-.86-.06-1.78-.08-2.74-.08ZM99.17,83,86,98.8a.7.7,0,0,0-.38-.1l-.4.1c0-.62.1-2,.13-4s.06-3.95.06-5.77c0-1.44,0-3.1,0-5s-.06-3.43-.17-4.64a7.33,7.33,0,0,0,1.3.11,7.22,7.22,0,0,0,1.29-.11c0,.2,0,1-.08,2.35S87.6,84.23,87.6,85c0,1.67,0,3.16,0,4.47s.07,2.82.12,4.53l12.35-14.56.75.08a2.92,2.92,0,0,0,.85-.11c0,.62-.1,1.93-.13,3.92s0,3.88,0,5.7c0,1.46,0,3.15,0,5.06s.07,3.48.17,4.69a7.5,7.5,0,0,0-1.31-.1,7.58,7.58,0,0,0-1.31.1c.06-1.74.1-3.24.14-4.5s0-2.57,0-3.94c0-1.07,0-2.23,0-3.49s0-2.56-.07-3.91Zm6.07,15.84c.36-1.53.79-4.06,1.31-7.59s1.06-7.57,1.64-12.13h.48q2,4.07,4,8c1.34,2.6,2.65,5.07,3.94,7.43q4.05-7.17,8.41-15.4h.37q.56,5.4.62,6.2.45,4,.74,6.58l.84,6.94-.62-.08-.67,0a7.08,7.08,0,0,0-1.28.1c0-2.29-.09-4.39-.27-6.28s-.39-3.57-.64-5c0-.33-.24-1.27-.56-2.8-1.25,2.08-2.43,4.18-3.55,6.28-.86,1.6-1.65,3.19-2.38,4.75-.62,1.36-1.06,2.39-1.31,3.1h-.4A17.87,17.87,0,0,0,114.86,96c-.41-.89-1-2-1.63-3.17l-4.41-8.16c-.43,3-.77,5.8-1,8.48s-.38,4.55-.38,5.63a4.65,4.65,0,0,0-1-.1h-.7c-.21,0-.36.09-.45.1Zm35.49.38a10.58,10.58,0,0,1-7.66-2.69,9.69,9.69,0,0,1-2.79-7.33,9.66,9.66,0,0,1,2.86-7.32,11.94,11.94,0,0,1,15.22,0,9.78,9.78,0,0,1,2.79,7.36,9.62,9.62,0,0,1-2.87,7.25,10.43,10.43,0,0,1-7.55,2.77Zm0-1.07a7,7,0,0,0,5.62-2.33c1.33-1.55,2-3.76,2-6.65s-.64-5.17-1.93-6.69a8.06,8.06,0,0,0-11.32.06q-2,2.35-2,6.74t2,6.57a7.08,7.08,0,0,0,5.67,2.3ZM178.3,79.43c0,1,0,2-.05,3.13-.09,2.78-.14,4.52-.14,5.23,0,1.38,0,3.15.07,5.32s.08,4.11.12,5.8c-.77-.07-1.64-.11-2.62-.11q-.68,0-2.55.06l-2.5,0c-2.17-.07-3.7-.11-4.57-.11s-1.88,0-3.3.06-2.47,0-3.17,0c-2.29-.07-3.88-.11-4.75-.11a13.84,13.84,0,0,0-1.93.11c.06-.62.1-2,.14-4s0-4,0-5.84c0-1.44,0-3.1,0-5s-.07-3.43-.18-4.64a4.38,4.38,0,0,0,.67.08l.64,0c.25,0,.51,0,.76,0l.55-.07s0,1.37-.09,4-.1,4.65-.1,5.92q0,1.51,0,3.63c0,1.41,0,2.86.08,4.36h8.93c0-.71,0-2.18.05-4.4s0-3.53,0-3.94c0-1.44,0-3.1,0-5s-.07-3.43-.17-4.64a4.23,4.23,0,0,0,.66.08l.65,0c.25,0,.5,0,.76,0l.55-.07s0,1.37-.1,4-.09,4.65-.09,5.92c0,1,0,2.22,0,3.63s.05,2.86.09,4.36h8.92c0-.68,0-2.46.05-5.35s.06-4.34.06-4.38c0-1,0-2.07-.06-3.26-.09-3-.13-4.65-.13-5a8.79,8.79,0,0,0,1.31.11l.45,0a8.64,8.64,0,0,0,.86-.09Zm7.21,0c0,.62-.09,1.93-.13,3.92s0,3.88,0,5.7c0,1.46,0,3.15,0,5.06s.07,3.48.17,4.69a8.57,8.57,0,0,0-2.61,0c0-.62.09-2,.13-4s.05-3.95.05-5.77c0-1.44,0-3.1,0-5s-.07-3.43-.17-4.64a7.8,7.8,0,0,0,2.61,0Z"/><path class="cls-1" d="M67.68,107h.64l1.07,1.74L70.47,107h.87l-1.51,2.45,1.61,2.61h-.88l-1.17-1.9-1.18,1.9h-.87L69,109.46,67.44,107ZM72,107h1.66l.44.06a1.94,1.94,0,0,1,.42.17,1.81,1.81,0,0,1,.33.29,1.2,1.2,0,0,1,.22.4,1.68,1.68,0,0,1,0,1,1.07,1.07,0,0,1-.22.39,1,1,0,0,1-.33.29,1.57,1.57,0,0,1-.44.18,2.6,2.6,0,0,1-.49.06l-.76,0h-.21v2.23h-.75V107Zm.62.73v1.37h.68A1.78,1.78,0,0,0,74,109a.46.46,0,0,0,.17-.09.86.86,0,0,0,.13-.14.71.71,0,0,0,.08-.18.64.64,0,0,0,0-.2.75.75,0,0,0-.11-.37.87.87,0,0,0-.12-.14.65.65,0,0,0-.16-.09.76.76,0,0,0-.25-.06l-.41,0Zm7.13,4.33h-.64v-3.46l-3,3.46h-.3V107h.74v3.51l3-3.51h.3v5.06Zm5.71-3.94-.48.37-.08-.1a2.61,2.61,0,0,0-.32-.34,1.73,1.73,0,0,0-.38-.24,1.63,1.63,0,0,0-.44-.15,2.42,2.42,0,0,0-.47,0,2.18,2.18,0,0,0-.52.06,2,2,0,0,0-.48.2,2.55,2.55,0,0,0-.41.3,2.88,2.88,0,0,0-.3.39,2,2,0,0,0-.19.46,2.18,2.18,0,0,0-.06.52,2.06,2.06,0,0,0,.14.76,1.76,1.76,0,0,0,.42.61,1.92,1.92,0,0,0,.64.42,2.18,2.18,0,0,0,.79.13,1.95,1.95,0,0,0,1.58-.74l.09-.09.58.44-.08.11a2.91,2.91,0,0,1-.43.43,2.47,2.47,0,0,1-.52.31,2.28,2.28,0,0,1-.59.2,3.52,3.52,0,0,1-.66.06,2.62,2.62,0,0,1-2.09-.88,2.36,2.36,0,0,1-.48-.82,2.84,2.84,0,0,1-.16-1,2.61,2.61,0,0,1,.19-1,2.66,2.66,0,0,1,.59-.85,2.63,2.63,0,0,1,.87-.57,3.08,3.08,0,0,1,1.07-.18A3.63,3.63,0,0,1,84,107a3,3,0,0,1,.6.21,2.75,2.75,0,0,1,.52.34,2.24,2.24,0,0,1,.42.45l.08.1-.11.08Zm.28-.52V107h2.89v.73H87.56v4.33h-.75v-4.33H85.74v-.13ZM93,112.07h-.63v-3.46l-3,3.46h-.3V107h.75v3.51l3-3.51h.3v5.06ZM95.91,107H97v5.06h-.74v-2.23h-.08l-1.73,2.23h-.93l1.74-2.24-.3,0a1.75,1.75,0,0,1-.44-.13,1.21,1.21,0,0,1-.33-.2,1.48,1.48,0,0,1-.26-.3,1.54,1.54,0,0,1-.15-.35,1.75,1.75,0,0,1,0-.4,1.47,1.47,0,0,1,.07-.48,1.23,1.23,0,0,1,.23-.4,1.38,1.38,0,0,1,.34-.3,1.47,1.47,0,0,1,.43-.16,2,2,0,0,1,.43-.06Zm.35,2.1v-1.37h-.72l-.41,0a.7.7,0,0,0-.25.06.51.51,0,0,0-.16.09.55.55,0,0,0-.12.14.53.53,0,0,0-.08.17.63.63,0,0,0,0,.19.64.64,0,0,0,0,.2.48.48,0,0,0,.08.18.81.81,0,0,0,.12.14.52.52,0,0,0,.18.1.77.77,0,0,0,.26.06,2.36,2.36,0,0,0,.4,0ZM98,107h.62v2h2.18v-2h.75v5.06h-.75v-2.32H98.66v2.32h-.75V107Zm9.13,1.12-.48.37-.08-.1a2.61,2.61,0,0,0-.32-.34,1.58,1.58,0,0,0-.39-.24,1.46,1.46,0,0,0-.43-.15,2.42,2.42,0,0,0-.47,0,2.18,2.18,0,0,0-.52.06,2,2,0,0,0-.48.2,2.55,2.55,0,0,0-.41.3,2.25,2.25,0,0,0-.3.39,2,2,0,0,0-.19.46,2.18,2.18,0,0,0-.06.52,2.06,2.06,0,0,0,.14.76,1.76,1.76,0,0,0,.42.61,1.92,1.92,0,0,0,.64.42,2.18,2.18,0,0,0,.79.13,2.12,2.12,0,0,0,.87-.18,2.07,2.07,0,0,0,.71-.56l.08-.09.59.44-.08.11a2.91,2.91,0,0,1-.43.43,2.87,2.87,0,0,1-1.12.51,3.34,3.34,0,0,1-.65.06,2.62,2.62,0,0,1-2.09-.88,2.36,2.36,0,0,1-.48-.82,2.84,2.84,0,0,1-.17-1,2.57,2.57,0,0,1,.78-1.87,2.77,2.77,0,0,1,.88-.57,3.08,3.08,0,0,1,1.07-.18,3.63,3.63,0,0,1,.67.06,3,3,0,0,1,.6.21,2.75,2.75,0,0,1,.52.34,2.24,2.24,0,0,1,.42.45l.08.1-.11.08Zm.89-1.12h.61v2.06h.21c.32,0,.59,0,.82,0a3.68,3.68,0,0,1,.57.07,1.15,1.15,0,0,1,.41.17,1.55,1.55,0,0,1,.33.3,1.38,1.38,0,0,1,.21.42,1.86,1.86,0,0,1,0,1,1.19,1.19,0,0,1-.21.42,1.77,1.77,0,0,1-.3.31,1.38,1.38,0,0,1-.39.18,4.34,4.34,0,0,1-.53.08c-.22,0-.48,0-.78,0h-1.09V107Zm.61,4.33h.38l.66,0a1.79,1.79,0,0,0,.36,0,.51.51,0,0,0,.18-.09.67.67,0,0,0,.14-.15.56.56,0,0,0,.09-.19,1.09,1.09,0,0,0,0-.26.85.85,0,0,0,0-.29.53.53,0,0,0-.11-.21.47.47,0,0,0-.17-.15.58.58,0,0,0-.22-.08,2.77,2.77,0,0,0-.39,0h-.91v1.54Zm3.44-4.33h.62v1.62l1.74-1.62h1L113,109.3l2.62,2.77h-1l-1.92-2v2H112V107Zm7.74,5.06h-.64v-3.46l-3,3.46h-.31V107h.75v3.51l3-3.51h.3v5.06Zm4.94,0h-.63v-3.46l-3,3.46h-.3V107h.75v3.51l3-3.51h.3v5.06Zm-3-6.22h.5l0,.06a.43.43,0,0,0,.11.12l.13.09.18,0,.21,0,.22,0,.15,0,.13-.09a.58.58,0,0,0,.12-.14l0-.05h.65l0,.16a.63.63,0,0,1-.15.32,1.09,1.09,0,0,1-.27.25,1.19,1.19,0,0,1-.38.17,2.23,2.23,0,0,1-.94,0,1.34,1.34,0,0,1-.39-.16,1.35,1.35,0,0,1-.28-.25,1.07,1.07,0,0,1-.16-.32l0-.17Zm5.92,6.09V107h2.68v.73h-1.93V109h.09c.31,0,.57,0,.79,0a2.21,2.21,0,0,1,.56.13,1.71,1.71,0,0,1,.4.22,1.57,1.57,0,0,1,.3.33,1.23,1.23,0,0,1,.19.4,1.25,1.25,0,0,1,.07.43,1.39,1.39,0,0,1-.12.57,1.41,1.41,0,0,1-.33.49,1.46,1.46,0,0,1-.54.34,1.94,1.94,0,0,1-.7.11h-1.46v-.13Zm.75-2.18v1.58h.46l.43,0a1.26,1.26,0,0,0,.28-.07,1.18,1.18,0,0,0,.19-.11,1.07,1.07,0,0,0,.14-.16.82.82,0,0,0,.09-.19.78.78,0,0,0,0-.22.75.75,0,0,0,0-.26.71.71,0,0,0-.13-.22.78.78,0,0,0-.2-.16.64.64,0,0,0-.24-.1,2.39,2.39,0,0,0-.36,0l-.51,0Zm7.11,2.31h-.61l-1.51-3.51-1.53,3.51h-.81l2.21-5.06h.28l2.16,5,2.38-5h.29l2.36,5.06h-.81l-.75-1.57h-1.91l-.75,1.57Zm2.71-3.61-.61,1.3h1.22l-.61-1.3Zm3.52,3.61h-.62V107h2.68v.73h-1.93v4.33Zm4.9-5.18a2.76,2.76,0,0,1,1.05.19,2.73,2.73,0,0,1,.87.57,2.56,2.56,0,0,1,.58.86,2.66,2.66,0,0,1,.19,1,2.67,2.67,0,0,1-1.62,2.46,2.7,2.7,0,0,1-1,.19,2.66,2.66,0,0,1-1-.19,2.47,2.47,0,0,1-.86-.58,2.39,2.39,0,0,1-.58-.85,2.6,2.6,0,0,1-.2-1,2.77,2.77,0,0,1,.35-1.35,2.86,2.86,0,0,1,.42-.55,2.58,2.58,0,0,1,.55-.42A2.5,2.5,0,0,1,146,107a2.58,2.58,0,0,1,.68-.08Zm0,.73a1.88,1.88,0,0,0-.94.26,1.77,1.77,0,0,0-.7.7,1.83,1.83,0,0,0-.18.46,1.81,1.81,0,0,0-.07.52,2,2,0,0,0,.14.74,1.76,1.76,0,0,0,.42.61,1.85,1.85,0,0,0,1.33.55,1.9,1.9,0,0,0,1-.25,2.46,2.46,0,0,0,.4-.3,2.19,2.19,0,0,0,.29-.39,1.6,1.6,0,0,0,.19-.47,2.2,2.2,0,0,0,0-1,1.54,1.54,0,0,0-.19-.46,2.19,2.19,0,0,0-.29-.39,2.55,2.55,0,0,0-.41-.3,1.74,1.74,0,0,0-1-.26Zm3.51,5.17h-.62v-1.43H150l1.89-4.35h.33l2,4.35h.42v1.43h-.75v-.72h-3.56v.72Zm.64-1.43h2.52l-1.29-2.89-1.23,2.89Zm4.29-4.35h.62v5.06H155V107Zm5.37,5.06h-.64v-3.46l-3,3.46h-.31V107h.75v3.51l3-3.51h.3v5.06Zm-3.05-6.22h.5l0,.06a.43.43,0,0,0,.11.12l.13.09.18,0,.21,0,.22,0,.15,0,.13-.09a.92.92,0,0,0,.13-.14l0-.05h.65l0,.16a.86.86,0,0,1-.15.32,1.14,1.14,0,0,1-.28.25,1.19,1.19,0,0,1-.38.17,2.23,2.23,0,0,1-.94,0,1.18,1.18,0,0,1-.38-.16,1,1,0,0,1-.28-.25,1.1,1.1,0,0,1-.17-.32l0-.17Zm4.2,1.16h.62v2h2.18v-2h.75v5.06h-.75v-2.32h-2.18v2.32h-.75V107Zm8.36,5.06h-.63v-3.46l-3,3.46h-.3V107h.75v3.51l3-3.51h.31v5.06Zm4.95,0h-.64v-3.46l-3,3.46H171V107h.75v3.51l3-3.51h.3v5.06Zm-3-6.22h.5l0,.06a.4.4,0,0,0,.1.12l.14.09.17,0,.22,0,.21,0,.16,0a.47.47,0,0,0,.12-.09.6.6,0,0,0,.13-.14l0-.05h.65l0,.16a.86.86,0,0,1-.15.32,1.09,1.09,0,0,1-.27.25,1.15,1.15,0,0,1-.39.17,1.7,1.7,0,0,1-.47,0,1.66,1.66,0,0,1-.46,0,1.18,1.18,0,0,1-.67-.41.88.88,0,0,1-.16-.32l-.05-.17Zm8.14,1.16h.61v.61h.24a3.7,3.7,0,0,1,.95.11,1.55,1.55,0,0,1,.65.35,1.63,1.63,0,0,1,.34.51,1.53,1.53,0,0,1,.12.6,1.74,1.74,0,0,1-.1.56,1.8,1.8,0,0,1-.3.49,1.28,1.28,0,0,1-.6.35,3,3,0,0,1-.91.11h-.39v1.37h-.74V110.7h-.39l-.51,0a2.5,2.5,0,0,1-.43-.09,1.23,1.23,0,0,1-.38-.19,1.82,1.82,0,0,1-.31-.31,1.65,1.65,0,0,1-.21-.42,1.85,1.85,0,0,1-.07-.48,1.53,1.53,0,0,1,.12-.6,1.46,1.46,0,0,1,1-.86,3.84,3.84,0,0,1,1-.11h.24V107Zm.61,1.35V110h.64a1.25,1.25,0,0,0,.4-.06.61.61,0,0,0,.27-.16.79.79,0,0,0,.17-.25.83.83,0,0,0,.06-.32.77.77,0,0,0-.07-.34.67.67,0,0,0-.2-.25.73.73,0,0,0-.34-.17,2,2,0,0,0-.52-.06Zm-.74,0h-.41a1.85,1.85,0,0,0-.49,0,1,1,0,0,0-.36.17.72.72,0,0,0-.21.25,1,1,0,0,0-.07.35.78.78,0,0,0,.23.57.64.64,0,0,0,.28.16,1.25,1.25,0,0,0,.42.06h.61v-1.61Zm6.16-1.47a2.76,2.76,0,0,1,1,.19,2.73,2.73,0,0,1,.87.57,2.56,2.56,0,0,1,.58.86,2.66,2.66,0,0,1,.19,1,2.53,2.53,0,0,1-.77,1.88,2.56,2.56,0,0,1-.86.58,2.61,2.61,0,0,1-1,.19,2.66,2.66,0,0,1-1-.19,2.6,2.6,0,0,1-.87-.58,2.68,2.68,0,0,1-.58-.85,2.59,2.59,0,0,1-.19-1,2.77,2.77,0,0,1,.35-1.35,2.86,2.86,0,0,1,.42-.55,2.79,2.79,0,0,1,.54-.42,2.73,2.73,0,0,1,.64-.27,2.53,2.53,0,0,1,.68-.08Zm0,.73a1.88,1.88,0,0,0-.94.26,2.46,2.46,0,0,0-.4.3,1.68,1.68,0,0,0-.3.4,2.34,2.34,0,0,0-.19.46,2.24,2.24,0,0,0-.06.52,2,2,0,0,0,.14.74,1.87,1.87,0,0,0,.41.61,1.91,1.91,0,0,0,.62.41,1.89,1.89,0,0,0,.72.14,1.92,1.92,0,0,0,1-.25,2,2,0,0,0,.39-.3,1.85,1.85,0,0,0,.3-.39,1.93,1.93,0,0,0,.19-.47,2.2,2.2,0,0,0,0-1,1.54,1.54,0,0,0-.19-.46,1.85,1.85,0,0,0-.3-.39,2.09,2.09,0,0,0-.4-.3,2,2,0,0,0-.47-.2,1.93,1.93,0,0,0-.49-.06Zm3.5-.61h.61v2h2.18v-2h.75v5.06h-.75v-2.32h-2.18v2.32h-.75V107Zm4.57,5.78h-.61v-1.43H194l1.88-4.35h.34l2,4.35h.42v1.43h-.75v-.72h-3.56v.72Zm.65-1.43h2.52l-1.29-2.89-1.23,2.89Z"/><path class="cls-3" d="M0,46.9c2.28-.7,4.07-2.23,6.46-3.11,9.34-3.41,7.62-.16,10.21,1.2a12.77,12.77,0,0,0,3.82.88c3.4.46,4.43,1.35,6.66,2.88,1.82,1.24,4,2.75,5.09,4.41.85,1.33.51,2.07,2.12,2.62a18.51,18.51,0,0,0,4.08.59c1.43.13,2.9.3,4.3.52,1.63.25,2.35,1.18,1.36,2.67-.53.8-1.81,1.54-1.65,3.09a1.9,1.9,0,0,0,1,1.32c.65.42,1.25.43,1.53,1,.33.85-.15,1.9.5,2.48s1.62.32,1.74,1.32-.62,1.23.57,2.13c.78.59,1,.46,1.8,1.22a2.85,2.85,0,0,1-.28,4.2c-3.06,2.92-6.52,5.68-8.78,9.34-5.48,8.86-1.42,17.12-.2,26.81.32-3.27-.67-7.49-1.08-10.24-.45-2.94-.88-6.62-.19-9.82a27.78,27.78,0,0,1,.94-2.7l.11-.2v0h0c2.75-6.37,8.68-8.2,11.56-13.09A5.33,5.33,0,0,0,52,72c-.75-1.73-1.5-1.73-2.74-2.73a2.74,2.74,0,0,0-.53-2.06c-.8-1.17-1.28-.93-1.52-1.53-.34-1.08.39-1.5-2.4-3.19a1.44,1.44,0,0,1-.28-.21c.32-.94,1.41-1.63,1.84-3a2.87,2.87,0,0,0-1.19-3.35C43.8,54.76,40,54.51,37.3,54.18c-2.06-.28-2.33.14-3.14-1.66a8.3,8.3,0,0,0-2.28-2.6c-.92-.68-1.7-1.43-2.65-2.1-3.48-2.46-5.17-3.77-9.89-4.65-1.95-.37-2-.37-3.15-1.58a3.32,3.32,0,0,0-3.45-1.31c-2.61.29-9.4,3.29-11.77,5.08-.54.41-1,.69-1,1.54Z"/><path class="cls-4" d="M42.11,9.86a22,22,0,0,1,7.75-8.12c3.55-2,7.48-2,11.42-1.39C64.54.83,66.85,1.71,67,2.07c-.57-.07-1-.26-1.6-.38-1.55-.31-3.25-.63-4.83-.82a15.44,15.44,0,0,0-8.29.82,20.19,20.19,0,0,0-8.92,8.17Z"/><path class="cls-4" d="M53.75,41.15c.45.46.63.86,1.1,1.14.86.51.85-.06,1.66.79.49.52.94.53,1.28,1a5.8,5.8,0,0,0,1,1.44c2.35,2.05,4.6,1.15,6.9-.41a18.93,18.93,0,0,0,6.44-7.79c.4-.88,1-2.59,1.46-3.39,1.65,0,4.1,1.66,5.27,2.6a9.88,9.88,0,0,0,1.56,1.05c.72.12-1.26-2.6-2.68-3.81-.47-.41-4.2-2.44-4.92-1.39a2,2,0,0,0-.18.4c-.09.22-.17.48-.26.75a16.29,16.29,0,0,1-3.88,6.62c-1.38,1.26-2,2.42-4.4,3.95a3.71,3.71,0,0,1-3.17.71c-1.44-.51-1.49-1.65-2-2.2s-.95-.35-1-1,.5-.74.26-1.32c-.08-.14-.31-.12-.35-.1-.6.22-.53.84-1.84.77-.87-.58-.63-1.14-1.33-1.61s-1.77,0-2.9-.15c-1.2-2.49.21-5.29-4.92-8.71-2.73-1.82-5.07-3.58-5.75-7.89C40.24,17,42,10.53,45.54,6.86c.64-.67,3.73-3.59,2.86-3.73-1.11.05-3.57,2.69-4.2,3.39C39,12.29,36,22.15,42.24,29.31a24,24,0,0,0,4.4,3.5c2.06,1.45,2.29,2.06,2.83,5.1.6,3.44,1.75,3.48,4.28,3.24Z"/></g></g></svg>