<svg width="1360" height="816" viewBox="0 0 1360 816" fill="none" xmlns="http://www.w3.org/2000/svg">
<path d="M0 88.6956C0 39.7104 39.7104 0 88.6957 0H1271.3C1320.29 0 1360 39.7104 1360 88.6957V727.304C1360 776.29 1320.29 816 1271.3 816H88.6956C39.7104 816 0 776.29 0 727.304V88.6956Z" fill="white"/>
<path d="M424.86 717.596V676.314C424.86 660.49 415.228 650.169 398.716 650.169C390.459 650.169 381.515 652.921 375.323 661.866C370.507 654.297 363.627 650.169 353.306 650.169C346.426 650.169 339.546 652.233 334.042 659.802V651.545H319.593V717.596H334.042V681.13C334.042 669.434 340.234 663.93 349.866 663.93C359.498 663.93 364.315 670.122 364.315 681.13V717.596H378.763V681.13C378.763 669.434 385.643 663.93 394.588 663.93C404.22 663.93 409.036 670.122 409.036 681.13V717.596H424.86V717.596ZM638.835 651.545H615.443V631.593H600.994V651.545H587.922V664.618H600.994V694.891C600.994 710.027 607.186 718.971 623.699 718.971C629.891 718.971 636.771 716.908 641.587 714.155L637.459 701.771C633.331 704.523 628.515 705.211 625.075 705.211C618.195 705.211 615.443 701.083 615.443 694.203V664.618H638.835V651.545V651.545ZM761.303 650.169C753.047 650.169 747.543 654.298 744.103 659.802V651.545H729.654V717.596H744.103V680.442C744.103 669.434 748.919 663.242 757.863 663.242C760.615 663.242 764.055 663.93 766.807 664.618L770.936 650.857C768.184 650.169 764.055 650.169 761.303 650.169V650.169ZM576.225 657.049C569.345 652.233 559.713 650.169 549.392 650.169C532.88 650.169 521.872 658.426 521.872 671.498C521.872 682.506 530.128 688.699 544.576 690.763L551.456 691.451C559.025 692.827 563.153 694.891 563.153 698.331C563.153 703.147 557.649 706.587 548.016 706.587C538.384 706.587 530.816 703.147 526 699.707L519.12 710.715C526.688 716.22 537.008 718.971 547.328 718.971C566.593 718.971 577.601 710.027 577.601 697.643C577.601 685.947 568.657 679.754 554.897 677.69L548.016 677.002C541.824 676.314 537.008 674.938 537.008 670.81C537.008 665.994 541.824 663.242 549.392 663.242C557.649 663.242 565.905 666.682 570.033 668.746L576.225 657.049V657.049ZM960.142 650.169C951.885 650.169 946.381 654.298 942.941 659.802V651.545H928.493V717.596H942.941V680.442C942.941 669.434 947.757 663.242 956.702 663.242C959.454 663.242 962.894 663.93 965.646 664.618L969.774 650.857C967.022 650.169 962.894 650.169 960.142 650.169V650.169ZM775.752 684.57C775.752 704.523 789.512 718.971 810.841 718.971C820.473 718.971 827.353 716.908 834.234 711.403L827.353 699.707C821.849 703.835 816.345 705.899 810.153 705.899C798.456 705.899 790.2 697.643 790.2 684.57C790.2 672.186 798.456 663.93 810.153 663.242C816.345 663.242 821.849 665.306 827.353 669.434L834.234 657.738C827.353 652.233 820.473 650.169 810.841 650.169C789.512 650.169 775.752 664.618 775.752 684.57V684.57ZM909.228 684.57V651.545H894.78V659.802C889.963 653.61 883.083 650.169 874.139 650.169C855.562 650.169 841.114 664.618 841.114 684.57C841.114 704.523 855.562 718.971 874.139 718.971C883.771 718.971 890.651 715.531 894.78 709.339V717.596H909.228V684.57ZM856.25 684.57C856.25 672.874 863.819 663.242 876.203 663.242C887.899 663.242 896.156 672.186 896.156 684.57C896.156 696.267 887.899 705.899 876.203 705.899C863.819 705.211 856.25 696.267 856.25 684.57ZM683.557 650.169C664.292 650.169 650.532 663.93 650.532 684.57C650.532 705.211 664.292 718.971 684.245 718.971C693.877 718.971 703.509 716.219 711.078 710.027L704.197 699.707C698.693 703.835 691.813 706.587 684.933 706.587C675.989 706.587 667.044 702.459 664.98 690.763H713.83C713.83 688.699 713.83 687.322 713.83 685.258C714.518 663.93 702.133 650.169 683.557 650.169V650.169ZM683.557 662.554C692.501 662.554 698.693 668.058 700.069 678.378H665.668C667.044 669.434 673.236 662.554 683.557 662.554ZM1042.02 684.57V625.401H1027.57V659.802C1022.75 653.61 1015.87 650.169 1006.93 650.169C988.351 650.169 973.902 664.618 973.902 684.57C973.902 704.523 988.351 718.971 1006.93 718.971C1016.56 718.971 1023.44 715.531 1027.57 709.339V717.596H1042.02V684.57ZM989.038 684.57C989.038 672.874 996.607 663.242 1008.99 663.242C1020.69 663.242 1028.94 672.186 1028.94 684.57C1028.94 696.267 1020.69 705.899 1008.99 705.899C996.607 705.211 989.038 696.267 989.038 684.57ZM506.047 684.57V651.545H491.599V659.802C486.783 653.61 479.902 650.169 470.958 650.169C452.381 650.169 437.933 664.618 437.933 684.57C437.933 704.523 452.381 718.971 470.958 718.971C480.59 718.971 487.471 715.531 491.599 709.339V717.596H506.047V684.57ZM452.381 684.57C452.381 672.874 459.95 663.242 472.334 663.242C484.03 663.242 492.287 672.186 492.287 684.57C492.287 696.267 484.03 705.899 472.334 705.899C459.95 705.211 452.381 696.267 452.381 684.57Z" fill="black"/>
<path d="M788.136 149.978H571.41V539.398H788.136V149.978Z" fill="#FF5F00"/>
<path d="M585.17 344.688C585.17 265.565 622.323 195.387 679.429 149.978C637.459 116.953 584.482 97 526.688 97C389.772 97 279 207.772 279 344.688C279 481.604 389.772 592.376 526.688 592.376C584.482 592.376 637.459 572.423 679.429 539.398C622.323 494.677 585.17 423.81 585.17 344.688Z" fill="#EB001B"/>
<path d="M1080.55 344.688C1080.55 481.604 969.774 592.376 832.858 592.376C775.064 592.376 722.086 572.423 680.117 539.398C737.911 493.989 774.376 423.81 774.376 344.688C774.376 265.565 737.223 195.387 680.117 149.978C722.086 116.953 775.064 97 832.858 97C969.774 97 1080.55 208.46 1080.55 344.688Z" fill="#F79E1B"/>
</svg>
