<svg width="1360" height="816" viewBox="0 0 1360 816" fill="none" xmlns="http://www.w3.org/2000/svg">
<path d="M0 88.6956C0 39.7104 39.7104 0 88.6957 0H1271.3C1320.29 0 1360 39.7104 1360 88.6957V727.304C1360 776.29 1320.29 816 1271.3 816H88.6956C39.7104 816 0 776.29 0 727.304V88.6956Z" fill="white"/>
<g clip-path="url(#clip0)">
<path d="M565.352 564.984H484.342L535.011 251.679H616.018L565.352 564.984Z" fill="#00579F"/>
<path d="M859.023 259.339C843.045 252.999 817.701 246 786.363 246C706.363 246 650.027 288.66 649.681 349.652C649.017 394.652 690.016 419.646 720.68 434.65C752.022 449.982 762.676 459.989 762.676 473.656C762.357 494.645 737.35 504.32 714.026 504.32C681.683 504.32 664.353 499.332 638.017 487.654L627.35 482.649L616.013 552.979C635.014 561.635 670.019 569.316 706.363 569.653C791.365 569.653 846.704 527.653 847.359 462.656C847.683 426.99 826.034 399.662 779.359 377.331C751.025 362.995 733.673 353.329 733.673 338.661C734.006 325.327 748.35 311.67 780.334 311.67C806.67 311.001 826.02 317.331 840.679 323.666L848.006 326.993L859.023 259.339V259.339Z" fill="#00579F"/>
<path d="M966.694 453.991C973.365 435.992 999.037 366.331 999.037 366.331C998.7 367 1005.7 348 1009.7 336.336L1015.36 363.332C1015.36 363.332 1030.7 438.327 1034.03 453.991C1021.37 453.991 982.695 453.991 966.694 453.991ZM1066.69 251.679H1004.03C984.706 251.679 970.025 257.341 961.688 277.674L841.357 564.979H926.359C926.359 564.979 940.353 526.31 943.361 517.982C952.686 517.982 1035.38 517.982 1047.37 517.982C1049.7 528.981 1057.04 564.979 1057.04 564.979H1132.05L1066.69 251.679V251.679Z" fill="#00579F"/>
<path d="M416.678 251.679L337.342 465.323L328.673 421.993C314.005 371.997 268.004 317.677 216.67 290.667L289.339 564.652H375.006L502.34 251.679H416.678V251.679Z" fill="#00579F"/>
<path d="M263.672 251.679H133.333L132 258.009C233.672 284.009 301.008 346.68 328.673 422.007L300.339 278.015C295.674 258.005 281.338 252.339 263.672 251.679Z" fill="#FAA61A"/>
</g>
<defs>
<clipPath id="clip0">
<rect width="1000.05" height="323.653" fill="white" transform="translate(132 246)"/>
</clipPath>
</defs>
</svg>
