<svg xmlns="http://www.w3.org/2000/svg" viewBox="0 0 239.41 137.21"><defs><style>.cls-1,.cls-3{fill:#1d1d1b;}.cls-1,.cls-2{fill-rule:evenodd;}.cls-2,.cls-4{fill:#afca0b;}</style></defs><title>logo-en_US</title><g id="Слой_2" data-name="Слой 2"><g id="Слой_1-2" data-name="Слой 1"><path class="cls-1" d="M0,56.71C2.75,55.86,4.92,54,7.81,53,19.1,48.82,17,52.76,20.15,54.4a15.75,15.75,0,0,0,4.63,1.07c4.1.55,5.35,1.63,8,3.48,2.2,1.5,4.86,3.32,6.15,5.33,1,1.6.62,2.5,2.57,3.16a21.81,21.81,0,0,0,4.93.72c1.73.16,3.51.36,5.2.63,2,.3,2.84,1.43,1.64,3.23-.64,1-2.18,1.86-2,3.73a2.26,2.26,0,0,0,1.19,1.59c.79.52,1.52.53,1.85,1.16.41,1-.17,2.29.61,3s2,.39,2.11,1.6-.76,1.49.68,2.57c.95.71,1.27.56,2.18,1.48,1.58,1.59,1.06,3.75-.34,5.08-3.7,3.53-7.88,6.86-10.62,11.29-6.63,10.72-1.72,20.7-.24,32.42.39-4-.81-9.05-1.31-12.38-.53-3.56-1.06-8-.22-11.88a34.43,34.43,0,0,1,1.14-3.27l.12-.23,0,0,0,0c3.33-7.69,10.5-9.9,14-15.82a6.43,6.43,0,0,0,.41-5.3c-.9-2.09-1.81-2.08-3.3-3.29a3.35,3.35,0,0,0-.65-2.49c-1-1.42-1.55-1.13-1.84-1.85-.4-1.32.47-1.82-2.9-3.86a1.75,1.75,0,0,1-.34-.26c.39-1.13,1.7-2,2.23-3.59a3.49,3.49,0,0,0-1.44-4.06c-1.67-1.37-6.24-1.68-9.53-2.08-2.49-.34-2.82.17-3.8-2a9.54,9.54,0,0,0-2.76-3.14c-1.1-.83-2-1.74-3.19-2.55-4.21-3-6.26-4.56-12-5.63-2.35-.44-2.46-.44-3.8-1.9A4,4,0,0,0,15.4,48.7c-3.15.35-11.36,4-14.23,6.15C.52,55.34,0,55.68,0,56.71Z"/><path class="cls-2" d="M50.92,11.92a26.51,26.51,0,0,1,9.37-9.81c4.29-2.46,9-2.39,13.8-1.68,4,.58,6.74,1.63,7,2.08-.69-.09-1.24-.32-1.94-.46-1.88-.38-3.92-.77-5.83-1-3.49-.42-6.72-.42-10,1a24.32,24.32,0,0,0-10.79,9.87Z"/><path class="cls-2" d="M65,49.76c.55.56.76,1,1.33,1.37,1,.61,1-.07,2,1,.6.63,1.15.64,1.55,1.23a7.24,7.24,0,0,0,1.23,1.74c2.84,2.48,5.56,1.4,8.34-.49a23,23,0,0,0,7.79-9.42c.48-1.06,1.21-3.14,1.77-4.1,2,.06,5,2,6.36,3.14a11.34,11.34,0,0,0,1.89,1.27c.87.15-1.52-3.14-3.24-4.61-.57-.49-5.07-3-5.94-1.67a1.77,1.77,0,0,0-.23.48c-.1.27-.2.58-.31.9-1,2.9-2.46,6-4.69,8-1.67,1.52-2.46,2.93-5.32,4.78a4.49,4.49,0,0,1-3.84.86c-1.74-.62-1.79-2-2.38-2.66-.43-.49-1.15-.42-1.2-1.18s.62-.89.32-1.59c-.1-.17-.37-.15-.43-.13-.72.27-.63,1-2.22.94-1-.7-.76-1.38-1.6-2s-2.14,0-3.51-.18c-1.46-3,.26-6.39-5.95-10.53-3.31-2.21-6.13-4.34-7-9.55-1.09-6.88,1.08-14.65,5.31-19.09.77-.81,4.51-4.34,3.46-4.51C57.18,3.85,54.2,7,53.44,7.89c-6.27,7-9.88,18.9-2.37,27.55a29.72,29.72,0,0,0,5.32,4.23c2.49,1.75,2.78,2.49,3.42,6.17.73,4.16,2.12,4.21,5.18,3.92Z"/><path class="cls-3" d="M88.9,131.2l-.94.9a2.93,2.93,0,0,0-2.16-1,2.32,2.32,0,0,0-1.71.69,2.29,2.29,0,0,0-.7,1.71,2.44,2.44,0,0,0,.31,1.25,2.06,2.06,0,0,0,.87.86,2.5,2.5,0,0,0,1.25.32,2.66,2.66,0,0,0,1.07-.22,3.79,3.79,0,0,0,1.07-.8l.91.95a4.78,4.78,0,0,1-1.48,1.06,4,4,0,0,1-1.59.3,3.65,3.65,0,0,1-2.7-1.05,3.61,3.61,0,0,1-1-2.68,3.68,3.68,0,0,1,.48-1.88,3.63,3.63,0,0,1,1.37-1.32,3.87,3.87,0,0,1,1.92-.5,4,4,0,0,1,1.68.37,4.13,4.13,0,0,1,1.4,1ZM90.07,130h1.37v2.67H93.8V130h1.37V137H93.8v-3.1H91.44V137H90.07V130Zm6.8,0h1.42a4.67,4.67,0,0,1,1.67.21,1.75,1.75,0,0,1,.81.69,2.17,2.17,0,0,1,.3,1.15,1.91,1.91,0,0,1-.34,1.17,2,2,0,0,1-1,.71L101.4,137H99.93l-1.59-3h-.13v3H96.87V130Zm1.34,2.76h.43a1.66,1.66,0,0,0,.88-.16.65.65,0,0,0,.24-.56.6.6,0,0,0-.12-.4.61.61,0,0,0-.32-.25,2.46,2.46,0,0,0-.74-.07h-.37v1.44Zm4.18-2.76h1.34V137h-1.34V130Zm6.56,1-1,.88a1.4,1.4,0,0,0-1.07-.73.67.67,0,0,0-.43.14.43.43,0,0,0-.17.32.56.56,0,0,0,.12.34,10,10,0,0,0,1,.91q.77.65.93.81a2.74,2.74,0,0,1,.58.79,2,2,0,0,1,.17.82,1.9,1.9,0,0,1-.6,1.44,2.18,2.18,0,0,1-1.57.57,2.29,2.29,0,0,1-1.31-.37,3.06,3.06,0,0,1-1-1.16l1.13-.69c.34.63.73.94,1.17.94a.87.87,0,0,0,.58-.2.61.61,0,0,0,.24-.47.8.8,0,0,0-.18-.48,5.39,5.39,0,0,0-.78-.73,7.82,7.82,0,0,1-1.49-1.46,1.8,1.8,0,0,1-.34-1,1.68,1.68,0,0,1,.56-1.26,2,2,0,0,1,1.38-.53,2.1,2.1,0,0,1,1,.25,3.74,3.74,0,0,1,1,.89Zm.71-1h3.91v1.33h-1.29V137h-1.36v-5.74h-1.26V130Zm4.74,0h1.34V137H114.4V130Zm5,0h1.37l2.72,7.07h-1.4l-.55-1.46h-2.89l-.57,1.46h-1.4L119.4,130Zm.7,1.87-.95,2.43H121l-.93-2.43Zm4.44-1.87h1.28l3,4.65V130h1.34V137h-1.29l-3-4.64V137h-1.34V130Zm16.53,1.24-.94.9a2.93,2.93,0,0,0-2.17-1,2.35,2.35,0,0,0-1.71.69,2.32,2.32,0,0,0-.69,1.71,2.44,2.44,0,0,0,.31,1.25,2.06,2.06,0,0,0,.87.86,2.5,2.5,0,0,0,1.25.32,2.66,2.66,0,0,0,1.07-.22,3.94,3.94,0,0,0,1.07-.8l.91.95a4.9,4.9,0,0,1-1.48,1.06,4,4,0,0,1-1.59.3,3.65,3.65,0,0,1-2.7-1.05,3.61,3.61,0,0,1-1.05-2.68,3.68,3.68,0,0,1,.48-1.88,3.63,3.63,0,0,1,1.37-1.32,3.87,3.87,0,0,1,1.92-.5,4,4,0,0,1,1.68.37,4.13,4.13,0,0,1,1.4,1Zm1.17-1.24h1.37v2.67H146V130h1.36V137H146v-3.1h-2.36V137h-1.37V130Zm8.86,0h1.36l2.72,7.07h-1.4l-.55-1.46h-2.88l-.58,1.46h-1.4L151.1,130Zm.69,1.87-.94,2.43h1.88l-.94-2.43Zm4.53-1.87h1.42a4.77,4.77,0,0,1,1.68.21,1.77,1.77,0,0,1,.8.69,2.17,2.17,0,0,1,.3,1.15,2,2,0,0,1-.33,1.17,2.08,2.08,0,0,1-1,.71l1.67,3.14h-1.47l-1.59-3h-.13v3h-1.34V130Zm1.34,2.76h.43a1.66,1.66,0,0,0,.88-.16.74.74,0,0,0,.13-1,.64.64,0,0,0-.33-.25,2.46,2.46,0,0,0-.74-.07h-.37v1.44Zm4.18-2.76h1.34V137h-1.34V130Zm2.15,0h3.91v1.33h-1.29V137h-1.36v-5.74H164V130Zm4.33,0h1.45l1.32,2.54,1.3-2.54h1.43l-2.07,4V137H170.4V134l-2.08-4Zm9.39,0h3.51v1.31H179v1.29h2.18v1.29H179V137h-1.33V130Zm8-.18a3.49,3.49,0,0,1,2.58,1.09,3.78,3.78,0,0,1,0,5.27,3.69,3.69,0,0,1-5.23,0,3.68,3.68,0,0,1-1.05-2.62,3.64,3.64,0,0,1,.49-1.86,3.5,3.5,0,0,1,1.35-1.35,3.61,3.61,0,0,1,1.84-.5Zm0,1.32a2.25,2.25,0,0,0-1.65.68,2.38,2.38,0,0,0-.67,1.74,2.25,2.25,0,0,0,.84,1.85,2.3,2.3,0,0,0,1.5.54,2.16,2.16,0,0,0,1.63-.7,2.48,2.48,0,0,0,0-3.41,2.19,2.19,0,0,0-1.65-.7Zm4.89-1.14H192v4.58a2.28,2.28,0,0,0,.11.83.76.76,0,0,0,.34.39,1.05,1.05,0,0,0,.57.15,1.15,1.15,0,0,0,.62-.16.83.83,0,0,0,.35-.42,3,3,0,0,0,.1-1V130h1.35v4.22a6.15,6.15,0,0,1-.12,1.48,2,2,0,0,1-.46.79,2,2,0,0,1-.78.57,2.8,2.8,0,0,1-2.37-.16,2,2,0,0,1-.81-.89,4.68,4.68,0,0,1-.25-1.79V130Zm6.36,0h1.29l3,4.65V130h1.35V137h-1.3l-3-4.64V137H197V130Zm7.28,0h1.6a5.32,5.32,0,0,1,2.29.38,3,3,0,0,1,1.23,1.25,3.93,3.93,0,0,1,.49,2,4.1,4.1,0,0,1-.27,1.51,3.11,3.11,0,0,1-.75,1.13,2.7,2.7,0,0,1-1,.63,7.62,7.62,0,0,1-1.93.17h-1.62V130Zm1.34,1.3v4.45h.63a3.18,3.18,0,0,0,1.34-.21,1.67,1.67,0,0,0,.68-.71,2.67,2.67,0,0,0,.26-1.23,2.36,2.36,0,0,0-.63-1.75,2.52,2.52,0,0,0-1.82-.55Zm7.7-1.3h1.37L217.4,137H216l-.55-1.46h-2.89L212,137h-1.4l2.72-7.07Zm.7,1.87-.95,2.43h1.88l-.93-2.43Zm3.73-1.87h3.91v1.33h-1.29V137H219v-5.74h-1.26V130Zm4.74,0h1.34V137h-1.34V130Zm6.19-.18a3.49,3.49,0,0,1,2.58,1.09,3.78,3.78,0,0,1,0,5.27,3.69,3.69,0,0,1-5.23,0,3.69,3.69,0,0,1-1.06-2.62,3.65,3.65,0,0,1,.5-1.86,3.55,3.55,0,0,1,1.34-1.35,3.67,3.67,0,0,1,1.85-.5Zm0,1.32a2.22,2.22,0,0,0-1.65.68,2.38,2.38,0,0,0-.67,1.74,2.25,2.25,0,0,0,.84,1.85,2.3,2.3,0,0,0,1.5.54,2.16,2.16,0,0,0,1.63-.7,2.48,2.48,0,0,0,0-3.41,2.21,2.21,0,0,0-1.65-.7ZM233.6,130h1.29l3,4.65V130h1.34V137H238l-3-4.64V137H233.6V130Z"/><path class="cls-3" d="M91.48,62.35v9.41c0,1.61,0,3.47,0,5.57s.08,3.83.2,5.18a9,9,0,0,0-2.93,0c.06-.69.11-2.15.15-4.37s.06-4.35.06-6.38V62.35H88a34.52,34.52,0,0,0-5.82.39l.06-.9-.06-1,4.39.06L90.2,61l3.55,0,4.45-.09-.09.93a4.07,4.07,0,0,0,.09,1,19.84,19.84,0,0,0-2.52-.3c-1-.06-2-.09-3.07-.09Zm13.17-1.49c-.06.7-.11,2.15-.15,4.37s-.06,4.35-.06,6.38c0,1.63,0,3.52,0,5.66s.07,3.89.19,5.24a8.13,8.13,0,0,0-1.46-.12,8.25,8.25,0,0,0-1.47.12c.06-.69.11-2.18.15-4.45s.06-4.42.06-6.45c0-1.61,0-3.47,0-5.57s-.08-3.83-.2-5.18a8.25,8.25,0,0,0,1.47.12,8.13,8.13,0,0,0,1.46-.12Zm4,21.65q.6-2.57,1.47-8.48t1.83-13.56h.54Q114.7,65,117,69.37t4.4,8.3q4.53-8,9.4-17.2h.41q.63,6,.7,6.93c.34,3,.61,5.42.83,7.35l.93,7.76a5.93,5.93,0,0,0-.68-.09l-.75,0a7.75,7.75,0,0,0-1.44.12c0-2.57-.09-4.91-.29-7s-.44-4-.72-5.64c-.06-.38-.27-1.42-.63-3.14-1.39,2.33-2.72,4.67-4,7-1,1.79-1.84,3.57-2.66,5.32-.7,1.51-1.18,2.67-1.46,3.46h-.45a20.32,20.32,0,0,0-1.19-3.1c-.46-1-1.07-2.18-1.83-3.56l-4.92-9.11c-.48,3.33-.86,6.48-1.14,9.47s-.42,5.09-.42,6.3a5,5,0,0,0-1.16-.12h-.78l-.51.12Zm39.67.42q-5.44,0-8.56-3a10.84,10.84,0,0,1-3.12-8.2,10.83,10.83,0,0,1,3.19-8.18,11.75,11.75,0,0,1,8.49-3.08q5.4,0,8.52,3a11,11,0,0,1,3.13,8.23,10.75,10.75,0,0,1-3.22,8.11,11.65,11.65,0,0,1-8.43,3.09Zm0-1.19a7.83,7.83,0,0,0,6.28-2.6q2.24-2.6,2.23-7.44c0-3.28-.72-5.78-2.17-7.48a9,9,0,0,0-12.65.07c-1.49,1.76-2.24,4.26-2.24,7.53s.74,5.64,2.21,7.35a7.93,7.93,0,0,0,6.34,2.57Zm14.33-.48c.26-.82.42-1.36.48-1.61a7.39,7.39,0,0,0,.21-1.74,6.08,6.08,0,0,0,2.09,2.78,5.24,5.24,0,0,0,3.14,1,4.42,4.42,0,0,0,3.28-1.26,4.57,4.57,0,0,0,1.26-3.4,3.6,3.6,0,0,0-.75-2.41A6.44,6.44,0,0,0,169.88,73l-2.57-1.08a7.74,7.74,0,0,1-3.18-2.14,4.84,4.84,0,0,1-1-3.18A5.81,5.81,0,0,1,165,62.2a6.79,6.79,0,0,1,4.81-1.73,10.12,10.12,0,0,1,4.81,1.17,15.13,15.13,0,0,0-.87,2.44,5.06,5.06,0,0,0-4.36-2.44,3.62,3.62,0,0,0-2.76,1.09,4,4,0,0,0-1,2.91,3.31,3.31,0,0,0,.73,2.25,6.8,6.8,0,0,0,2.44,1.6l2.56,1.11a8,8,0,0,1,3.25,2.16,5.13,5.13,0,0,1,1,3.27,6.5,6.5,0,0,1-2.06,5,7.8,7.8,0,0,1-5.5,1.91,8.53,8.53,0,0,1-5.32-1.67Zm20-20.4c-.06.44-.11,1.45-.15,3s0,3.27,0,5v1.17c.21,0,.92,0,2.1.06s2.67,0,4.47,0h6.51V69q0-1.35-.06-3c-.1-2.69-.15-4.41-.15-5.17a8.13,8.13,0,0,0,1.46.12,8.25,8.25,0,0,0,1.47-.12c-.06.7-.11,2.15-.15,4.37s-.06,4.35-.06,6.38c0,1.63,0,3.52,0,5.66s.08,3.89.2,5.24a8.25,8.25,0,0,0-1.47-.12,8.13,8.13,0,0,0-1.46.12c.06-1.94.11-3.62.15-5s.06-2.87.06-4.4V71.61c-.26,0-1.12,0-2.57-.08s-2.77,0-3.94,0-2.38,0-3.44.05l-3.13.07V73c0,1.58,0,3.32,0,5.23a37.66,37.66,0,0,0,.19,4.24,8.94,8.94,0,0,0-2.92,0c.06-.69.11-2.18.15-4.45s.06-4.42.06-6.45c0-1.61,0-3.47,0-5.57s-.07-3.83-.19-5.18a8.94,8.94,0,0,0,2.92,0Zm18.28,21.65q5.21-11.28,9.8-22h.6c1,2.57,2.06,5.1,3.07,7.59.92,2.21,1.94,4.66,3.08,7.34q1.88,4.48,3,7.11a9.16,9.16,0,0,0-1.56-.12h-.67a6.64,6.64,0,0,0-.94.12c-.42-1.28-.82-2.42-1.19-3.43-.5-1.32-1-2.59-1.53-3.82L214.08,74h-7.79c-.28.62-.71,1.66-1.29,3.13-.67,1.72-1.34,3.52-2,5.38a2.2,2.2,0,0,0-.46-.09,5.49,5.49,0,0,0-.58,0,3.18,3.18,0,0,0-.7.06,1.9,1.9,0,0,1-.35.06ZM210.2,64.8l-3.37,7.8,2.39.06h4.24l-.54-1.33L210.2,64.8Zm13.53-4.45v8.54h-1.55V60.35Zm2.81,20.91c.26-.82.42-1.36.48-1.61a7.39,7.39,0,0,0,.21-1.74,6,6,0,0,0,2.09,2.78,5.21,5.21,0,0,0,3.13,1,4.44,4.44,0,0,0,3.29-1.26A4.61,4.61,0,0,0,237,77a3.65,3.65,0,0,0-.74-2.41A6.52,6.52,0,0,0,233.8,73l-2.57-1.08a7.61,7.61,0,0,1-3.18-2.14,4.84,4.84,0,0,1-1-3.18,5.78,5.78,0,0,1,1.85-4.42,6.77,6.77,0,0,1,4.81-1.73,10.15,10.15,0,0,1,4.81,1.17,15.13,15.13,0,0,0-.87,2.44,5.08,5.08,0,0,0-4.36-2.44,3.59,3.59,0,0,0-2.76,1.09,4,4,0,0,0-1,2.91,3.31,3.31,0,0,0,.73,2.25,6.84,6.84,0,0,0,2.43,1.6l2.57,1.11a8.07,8.07,0,0,1,3.24,2.16,5.08,5.08,0,0,1,1,3.27,6.5,6.5,0,0,1-2.06,5,7.76,7.76,0,0,1-5.49,1.91,8.49,8.49,0,0,1-5.32-1.67Z"/><path class="cls-4" d="M82.94,117.33q.39-1.23.48-1.62a7.78,7.78,0,0,0,.2-1.73,6.15,6.15,0,0,0,2.09,2.78,5.26,5.26,0,0,0,3.14,1,4.45,4.45,0,0,0,3.29-1.26,4.62,4.62,0,0,0,1.25-3.4,3.6,3.6,0,0,0-.75-2.41,6.4,6.4,0,0,0-2.44-1.6L87.63,108a7.61,7.61,0,0,1-3.18-2.14,4.84,4.84,0,0,1-1-3.18,5.78,5.78,0,0,1,1.85-4.42,6.76,6.76,0,0,1,4.81-1.73,10.19,10.19,0,0,1,4.8,1.16,16.7,16.7,0,0,0-.86,2.45,5.09,5.09,0,0,0-4.36-2.45,3.66,3.66,0,0,0-2.77,1.09,4.11,4.11,0,0,0-1,2.92A3.33,3.33,0,0,0,86.6,104a6.75,6.75,0,0,0,2.43,1.6l2.57,1.1a8.18,8.18,0,0,1,3.24,2.17,5.08,5.08,0,0,1,1,3.27,6.52,6.52,0,0,1-2.06,5,7.78,7.78,0,0,1-5.5,1.91,8.48,8.48,0,0,1-5.31-1.67Zm15.29,1.25q.6-2.56,1.47-8.48t1.82-13.56h.54q2.25,4.54,4.5,8.9t4.4,8.3q4.52-8,9.4-17.2h.41c.41,4,.65,6.33.7,6.93.33,3,.61,5.41.82,7.35.32,2.59.62,5.17.94,7.76a5.83,5.83,0,0,0-.69-.09l-.75,0a7.71,7.71,0,0,0-1.43.12q0-3.85-.3-7t-.71-5.64c-.06-.38-.27-1.43-.63-3.14q-2.1,3.5-4,7c-1,1.79-1.85,3.57-2.66,5.32-.7,1.51-1.19,2.67-1.47,3.46h-.44a19.45,19.45,0,0,0-1.2-3.1c-.46-1-1.06-2.18-1.82-3.56l-4.93-9.11c-.48,3.33-.85,6.48-1.13,9.47s-.42,5.09-.42,6.3a5.14,5.14,0,0,0-1.17-.12h-.77l-.51.12Zm32.49-21.65c-.05.7-.1,2.15-.14,4.37s-.06,4.35-.06,6.38c0,1.63,0,3.52,0,5.66s.08,3.89.19,5.24a8.94,8.94,0,0,0-2.92,0c.06-.7.11-2.18.15-4.45s.06-4.42.06-6.45c0-1.61,0-3.47,0-5.57s-.07-3.83-.19-5.18a8.94,8.94,0,0,0,2.92,0Zm8.55,0c-.06.7-.11,2.15-.15,4.37s-.06,4.35-.06,6.38c0,.64,0,2.07.12,4.3s.12,3.92.12,5.08l2.15.06a32.22,32.22,0,0,0,6.45-.51l-.06,1,.06,1-7.35-.12c-.74,0-1.5,0-2.3.05l-1.91.07c.06-.7.11-2.18.15-4.45s.06-4.42.06-6.45c0-1.61,0-3.47,0-5.57s-.07-3.83-.19-5.18a9,9,0,0,0,2.93,0Zm15.5,10.84v1.55c0,.7,0,2,.09,4s.09,3.24.09,3.76h.65c.88,0,2.05,0,3.5-.09s2.83-.15,4.12-.27l0,1,0,1q-.6-.06-2.25-.09l-3.19,0h-5.73c.06-.7.11-2.19.15-4.48s.06-4.45.06-6.48q0-6.42,0-7.75t-.18-2.94c.48,0,1.2,0,2.18.07s1.64.08,2,.08c.76,0,2,0,3.84-.08s2.86-.07,3.18-.07L163.19,98l.06,1a42.8,42.8,0,0,0-7.65-.48h-.74c0,.5,0,1.1,0,1.79s0,1.36-.06,2v4.13h2.51c.43,0,1.3,0,2.6-.09s2.23-.09,2.8-.09l-.06.89.06.9q-2.81-.27-5.4-.27Z"/></g></g></svg>